<?xml version="1.0" encoding="iso-8859-1"?>
<!-- Generator: Adobe Illustrator 16.0.0, SVG Export Plug-In . SVG Version: 6.00 Build 0)  -->
<!DOCTYPE svg PUBLIC "-//W3C//DTD SVG 1.1//EN" "http://www.w3.org/Graphics/SVG/1.1/DTD/svg11.dtd">
<svg version="1.1" id="Capa_1" xmlns="http://www.w3.org/2000/svg" xmlns:xlink="http://www.w3.org/1999/xlink" x="0px" y="0px"
	 width="561.286px" height="561.286px" viewBox="0 0 561.286 561.286" style="enable-background:new 0 0 561.286 561.286;"
	 xml:space="preserve">
<g>
	<g>
		<path d="M504.115,368.805l10.327-86.751c0.583-4.867-0.363-9.562-2.429-13.636c-0.479-1.311-1.177-2.554-2.276-3.586l0,0
			l-4.791-4.677L392.415,150.283c-3.844-3.625-9.763-3.347-13.244,0.631l-12.422,14.22c-1.243,0.822-2.438,1.74-3.547,2.821
			l-60.406,58.81l-18.045-3.003c0.708-3.242,0.794-6.665,0.048-10.117c-2.782-12.89-15.52-21.133-28.41-18.303l-40.277,8.702
			l-4.705-5.728l5.164-6.177c3.328-4.103,2.964-10.414-0.822-14.105l-49.275-48.08c-3.787-3.691-9.505-3.328-12.785,0.813
			L55.461,254.552c-7.047,5.059-11.15,13.703-9.782,22.874l14.85,99.65L5.21,446.48c-8.224,10.328-6.531,25.37,3.796,33.604
			c4.399,3.509,9.658,5.211,14.889,5.211c7.028,0,13.99-3.079,18.714-8.998l61.803-77.542c4.14-5.192,5.929-11.867,4.953-18.428
			l-7.66-51.369c0.498-0.393,1.033-0.67,1.473-1.205l5.853-7l36.271,50.48l13.703,93.627c1.74,11.886,11.953,20.444,23.629,20.444
			c1.147,0,2.314-0.086,3.49-0.249c13.062-1.912,22.108-14.057,20.196-27.119l-14.544-99.393c-0.555-3.786-2.008-7.372-4.236-10.49
			l-46.837-65.168l39.502-47.239l8.233,10.021c4.59,5.594,11.398,8.731,18.475,8.731c1.674,0,3.376-0.183,5.049-0.546l21.229-4.59
			c2.305,8.846,9.572,15.97,19.173,17.566l54.535,9.085c1.311,0.22,2.62,0.325,3.931,0.325c6.177,0,12.173-2.4,16.677-6.78
			l32.962-32.092l61.592,69.271l-45.556,56.065c-3.461,4.255-5.354,9.581-5.354,15.07v89.677c0,13.206,10.7,23.906,23.906,23.906
			c13.205,0,23.906-10.7,23.906-23.906v-81.186l40.946-50.403l-4.437,37.217c-0.756,6.359,1.07,12.766,5.067,17.758l58.169,72.713
			c4.724,5.9,11.666,8.97,18.686,8.97c5.24,0,10.509-1.712,14.917-5.24c10.318-8.243,11.982-23.294,3.739-33.603L504.115,368.805z"
			/>
		<path d="M310.675,192.578c24.767,0,44.849-20.082,44.849-44.839c0-24.767-20.091-44.848-44.849-44.848
			c-14.765,0-27.75,7.229-35.926,18.245c0.296-2.094,0.641-4.188,0.641-6.368c0-24.767-20.081-44.839-44.848-44.839
			c-24.767,0-44.857,20.082-44.857,44.839c0,24.776,20.081,44.857,44.857,44.857c14.765,0,27.75-7.229,35.927-18.245
			c-0.297,2.094-0.641,4.188-0.641,6.369C265.827,172.506,285.908,192.578,310.675,192.578z"/>
	</g>
</g>
<g>
</g>
<g>
</g>
<g>
</g>
<g>
</g>
<g>
</g>
<g>
</g>
<g>
</g>
<g>
</g>
<g>
</g>
<g>
</g>
<g>
</g>
<g>
</g>
<g>
</g>
<g>
</g>
<g>
</g>
</svg>
