<?xml version="1.0" encoding="iso-8859-1"?>
<!-- Generator: Adobe Illustrator 16.0.0, SVG Export Plug-In . SVG Version: 6.00 Build 0)  -->
<!DOCTYPE svg PUBLIC "-//W3C//DTD SVG 1.1//EN" "http://www.w3.org/Graphics/SVG/1.1/DTD/svg11.dtd">
<svg version="1.1" id="Capa_1" xmlns="http://www.w3.org/2000/svg" xmlns:xlink="http://www.w3.org/1999/xlink" x="0px" y="0px"
	 width="472.318px" height="472.318px" viewBox="0 0 472.318 472.318" style="enable-background:new 0 0 472.318 472.318;"
	 xml:space="preserve">
<g>
	<g>
		<path d="M7.85,184.088L0.076,292.1c-0.651,7.358,2.922,14.459,9.235,18.322c3.116,1.907,6.63,2.861,10.149,2.861
			c3.604,0,7.199-1.006,10.369-2.997l101.246-50.951c2.427-1.534,4.366-3.526,5.843-5.774l20.496,14.852l-20.482,53.848
			c-5.594,14.712,1.783,31.186,16.48,36.796l145.279,55.552c3.351,1.274,6.797,1.887,10.18,1.887
			c11.485,0,22.309-6.984,26.665-18.354c0.404-1.058,0.589-2.148,0.865-3.218l96.403,40.122c3.591,1.491,7.301,2.196,10.956,2.196
			c11.185,0,21.796-6.608,26.356-17.572c6.063-14.552-0.833-31.25-15.376-37.313L301.16,318.425l-70.054-83.262l3.258-8.568
			c3.949-10.377,1.342-21.554-5.634-29.258l-46.957-86.125l57.116-3.288l46.478,102.602c2.745,6.045,8.179,10.008,14.242,11.117
			c3.755,0.689,7.759,0.276,11.51-1.423c9.79-4.434,14.126-15.963,9.697-25.748L268.82,79.707
			c-3.326-7.333-10.808-11.852-18.843-11.397l-81.735,4.708c-4.913,0.283-9.241,2.426-12.491,5.63l-36.159,23.463
			c-7.738,21.752-28.48,37.399-52.856,37.399c-1.491,0-2.967-0.11-4.428-0.227l-43.859,28.467l0.746,0.539
			C13.154,172.765,8.329,178.71,7.85,184.088z M235.895,329.498l-35.492-13.577l7.498-19.712L235.895,329.498z M54.968,187.11
			c6.861-4.21,14.657-6.973,23.033-7.754c1.711-0.166,3.416-0.247,5.095-0.247c18.615,0,35.656,9.468,45.597,25.325l2.096,3.344
			l-1.431,3.675c-1.721,4.404-4.005,8.438-6.68,12.136c-0.196,0.277-0.353,0.591-0.557,0.856c-2.042,0.314-4.074,0.667-6.093,1.06
			c-2.408,0.465-4.819,0.925-7.199,1.484c0.028-0.024,0.05-0.046,0.072-0.062c5.784-4.941,10.361-11.189,13.14-18.334
			c-8.209-13.108-22.75-21.642-38.936-21.642c-1.447,0-2.899,0.074-4.36,0.202c-8.271,0.78-15.761,3.785-22.089,8.262
			c-0.848,0.595-1.679,1.192-2.48,1.843c-6.188,5.033-11.044,11.573-13.958,19.051c3.038,4.853,6.955,9.077,11.493,12.477
			c6.893,5.164,15.252,8.33,24.225,8.967c-2.369,0.966-4.741,1.946-7.095,2.975c-1.91,0.834-3.813,1.684-5.707,2.562
			c-1.775,0.801-3.542,1.639-5.298,2.473l-7.67,2.829l0.848-10.833c-6.917-4.276-12.938-10.073-17.446-17.272l-2.096-3.342
			l1.429-3.675c3.612-9.273,9.571-17.074,17.027-22.922C51.529,189.29,53.23,188.174,54.968,187.11z"/>
		<path d="M75.305,130.862c13.026-2.333,24.253-9.853,31.415-20.378c5.251-7.736,8.325-17.062,8.325-27.108
			c0-26.667-21.618-48.299-48.293-48.299S18.456,56.7,18.456,83.375c0,26.667,21.62,48.294,48.295,48.294
			C69.671,131.661,72.52,131.363,75.305,130.862z"/>
	</g>
</g>
<g>
</g>
<g>
</g>
<g>
</g>
<g>
</g>
<g>
</g>
<g>
</g>
<g>
</g>
<g>
</g>
<g>
</g>
<g>
</g>
<g>
</g>
<g>
</g>
<g>
</g>
<g>
</g>
<g>
</g>
</svg>
